<?xml version="1.0" encoding="UTF-8" standalone="no"?>
<!-- Generator: Adobe Illustrator 18.1.1, SVG Export Plug-In . SVG Version: 6.00 Build 0)  -->

<svg
   xmlns:dc="http://purl.org/dc/elements/1.1/"
   xmlns:cc="http://creativecommons.org/ns#"
   xmlns:rdf="http://www.w3.org/1999/02/22-rdf-syntax-ns#"
   xmlns:svg="http://www.w3.org/2000/svg"
   xmlns="http://www.w3.org/2000/svg"
   xmlns:sodipodi="http://sodipodi.sourceforge.net/DTD/sodipodi-0.dtd"
   xmlns:inkscape="http://www.inkscape.org/namespaces/inkscape"
   version="1.1"
   id="Capa_1"
   x="0px"
   y="0px"
   viewBox="0 0 212.982 212.982"
   style="enable-background:new 0 0 212.982 212.982;"
   xml:space="preserve"
   width="512px"
   height="512px"
   inkscape:version="0.91 r13725"
   sodipodi:docname="cancel-music.svg"><metadata
     id="metadata40"><rdf:RDF><cc:Work
         rdf:about=""><dc:format>image/svg+xml</dc:format><dc:type
           rdf:resource="http://purl.org/dc/dcmitype/StillImage" /></cc:Work></rdf:RDF></metadata><defs
     id="defs38" /><sodipodi:namedview
     pagecolor="#ffffff"
     bordercolor="#666666"
     borderopacity="1"
     objecttolerance="10"
     gridtolerance="10"
     guidetolerance="10"
     inkscape:pageopacity="0"
     inkscape:pageshadow="2"
     inkscape:window-width="1881"
     inkscape:window-height="1056"
     id="namedview36"
     showgrid="false"
     inkscape:zoom="0.4609375"
     inkscape:cx="264.67797"
     inkscape:cy="256"
     inkscape:window-x="39"
     inkscape:window-y="24"
     inkscape:window-maximized="1"
     inkscape:current-layer="Close" /><g
     id="Close"><path
       style="clip-rule:evenodd;fill:#ff9100;fill-rule:evenodd"
       d="m 123.31228,111.90564 45.04681,-45.046812 c 4.14662,-4.146614 4.14662,-10.869585 0,-15.015605 -4.14661,-4.146614 -10.86899,-4.146614 -15.0156,0 L 108.29608,96.890632 63.248676,51.842629 c -4.146614,-4.146613 -10.868992,-4.146613 -15.015606,0 -4.14602,4.146614 -4.14602,10.869585 0,15.015606 l 45.04741,45.046815 -45.04741,45.04741 c -4.14602,4.14661 -4.14602,10.86959 0,15.01561 4.146614,4.14661 10.868992,4.14661 15.015606,0 l 45.047404,-45.04741 45.04741,45.04741 c 4.14602,4.14661 10.86899,4.14661 15.0156,0 4.14662,-4.14662 4.14662,-10.869 0,-15.01561 l -45.04681,-45.04682 z"
       id="path4"
       inkscape:connector-curvature="0"
       inkscape:transform-center-y="0.90246609" /></g><g
     id="g6" /><g
     id="g8" /><g
     id="g10" /><g
     id="g12" /><g
     id="g14" /><g
     id="g16" /><g
     id="g18" /><g
     id="g20" /><g
     id="g22" /><g
     id="g24" /><g
     id="g26" /><g
     id="g28" /><g
     id="g30" /><g
     id="g32" /><g
     id="g34" /></svg>