<?xml version="1.0" encoding="UTF-8" standalone="no"?>
<svg
   xmlns:dc="http://purl.org/dc/elements/1.1/"
   xmlns:cc="http://creativecommons.org/ns#"
   xmlns:rdf="http://www.w3.org/1999/02/22-rdf-syntax-ns#"
   xmlns:svg="http://www.w3.org/2000/svg"
   xmlns="http://www.w3.org/2000/svg"
   xmlns:sodipodi="http://sodipodi.sourceforge.net/DTD/sodipodi-0.dtd"
   xmlns:inkscape="http://www.inkscape.org/namespaces/inkscape"
   width="269.90799"
   height="342.99509"
   viewBox="0 0 269.90799 342.99509"
   version="1.1"
   id="svg2"
   inkscape:version="0.91 r13725"
   sodipodi:docname="dunya-desktop-logo.svg">
  <metadata
     id="metadata20">
    <rdf:RDF>
      <cc:Work
         rdf:about="">
        <dc:format>image/svg+xml</dc:format>
        <dc:type
           rdf:resource="http://purl.org/dc/dcmitype/StillImage" />
        <dc:title>Group</dc:title>
      </cc:Work>
    </rdf:RDF>
  </metadata>
  <sodipodi:namedview
     pagecolor="#ffffff"
     bordercolor="#666666"
     borderopacity="1"
     objecttolerance="10"
     gridtolerance="10"
     guidetolerance="10"
     inkscape:pageopacity="0"
     inkscape:pageshadow="2"
     inkscape:window-width="1881"
     inkscape:window-height="1056"
     id="namedview18"
     showgrid="false"
     fit-margin-top="0"
     fit-margin-left="0"
     fit-margin-right="0"
     fit-margin-bottom="0"
     inkscape:zoom="0.71929828"
     inkscape:cx="345.22087"
     inkscape:cy="101.99114"
     inkscape:window-x="39"
     inkscape:window-y="24"
     inkscape:window-maximized="1"
     inkscape:current-layer="svg2" />
  <!-- Generator: Sketch 3.8.3 (29802) - http://www.bohemiancoding.com/sketch -->
  <title
     id="title4">Group</title>
  <desc
     id="desc6">Created with Sketch.</desc>
  <defs
     id="defs8" />
  <g
     id="Page-1"
     style="fill:none;fill-rule:evenodd;stroke:none;stroke-width:1"
     transform="scale(4.6241008,4.6241008)">
    <g
       id="Group">
      <circle
         id="Oval-2"
         cx="29"
         cy="29"
         r="29"
         style="fill:#ffce00" />
      <circle
         id="Oval-3"
         cx="29"
         cy="33"
         r="25"
         style="fill:#f8a719" />
      <circle
         id="Oval-4"
         cx="29"
         cy="37"
         r="21"
         style="fill:#f28220" />
      <circle
         id="Oval-5"
         cx="29"
         cy="41"
         r="16"
         style="fill:#ed5a23" />
      <circle
         id="Oval-1"
         cx="29"
         cy="44"
         r="13"
         style="fill:#e71d25" />
      <path
         d="m 8.4850001,35.21 c -0.7560038,0 -1.4559968,-0.160998 -2.1,-0.483 -0.6440032,-0.322002 -1.2004977,-0.745497 -1.6695,-1.2705 -0.4690024,-0.525003 -0.8329987,-1.123497 -1.092,-1.7955 -0.2590013,-0.672003 -0.3885,-1.364996 -0.3885,-2.079 0,-0.756004 0.1259987,-1.476997 0.378,-2.163 0.2520013,-0.686003 0.6019978,-1.287997 1.05,-1.806 0.4480022,-0.518003 0.9799969,-0.930999 1.596,-1.239 0.6160031,-0.308002 1.2879964,-0.462 2.016,-0.462 0.4900025,0 0.9519978,0.07 1.386,0.21 0.4340019,0.140001 0.8329979,0.332499 1.1969999,0.5775 0.364002,0.245001 0.696499,0.528498 0.9975,0.8505 0.301002,0.322002 0.563499,0.657998 0.7875,1.008 l 0,-6.888 0.714,0 0,14.196 c 0,0.308002 0.125999,0.462 0.378,0.462 l 0,0.672 c -0.042,0.014 -0.104999,0.021 -0.189,0.021 -0.238001,0 -0.440999,-0.0945 -0.609,-0.2835 -0.168001,-0.189001 -0.252,-0.395499 -0.252,-0.6195 l 0,-1.344 c -0.224001,0.364002 -0.493498,0.696498 -0.8085,0.9975 -0.315001,0.301002 -0.654498,0.556499 -1.0185,0.7665 -0.364002,0.210001 -0.748998,0.374499 -1.1549999,0.4935 -0.406002,0.119001 -0.811998,0.1785 -1.218,0.1785 l 0,0 z m 0.084,-0.672 c 0.406002,0 0.8399977,-0.084 1.302,-0.252 0.4620019,-0.168001 0.8924979,-0.395499 1.2914999,-0.6825 0.399002,-0.287001 0.734999,-0.622998 1.008,-1.008 0.273002,-0.385002 0.4305,-0.787498 0.4725,-1.2075 l 0,-3.759 c -0.154001,-0.420002 -0.384998,-0.815498 -0.693,-1.1865 -0.308001,-0.371002 -0.654498,-0.692999 -1.0395,-0.966 -0.385002,-0.273001 -0.797998,-0.489999 -1.2389999,-0.651 -0.4410022,-0.161001 -0.8714979,-0.2415 -1.2915,-0.2415 -0.6720034,0 -1.2809973,0.143499 -1.827,0.4305 -0.5460027,0.287001 -1.0114981,0.664998 -1.3965,1.134 -0.3850019,0.469002 -0.6824989,1.000997 -0.8925,1.596 -0.2100011,0.595003 -0.315,1.207497 -0.315,1.8375 0,0.658003 0.1189988,1.284497 0.357,1.8795 0.2380012,0.595003 0.5669979,1.119998 0.987,1.575 0.4200021,0.455002 0.9099972,0.818999 1.47,1.092 0.5600028,0.273001 1.1619968,0.4095 1.806,0.4095 l 0,0 z M 18.961,35.21 c -1.162006,0 -2.036997,-0.412996 -2.625,-1.239 -0.588003,-0.826004 -0.882,-2.050992 -0.882,-3.675 l 0,-6.216 0.714,0 0,6.132 c 0,2.884014 0.97999,4.326 2.94,4.326 0.490002,0 0.972998,-0.0875 1.449,-0.2625 0.476002,-0.175001 0.913498,-0.416499 1.3125,-0.7245 0.399002,-0.308002 0.748998,-0.678998 1.05,-1.113 0.301002,-0.434002 0.535499,-0.909997 0.7035,-1.428 l 0,-6.93 0.714,0 0,9.786 c 0,0.308002 0.125999,0.462 0.378,0.462 l 0,0.672 c -0.042,0.014 -0.0805,0.021 -0.1155,0.021 l -0.0945,0 c -0.238001,0 -0.437499,-0.098 -0.5985,-0.294 -0.161001,-0.196001 -0.2415,-0.398999 -0.2415,-0.609 l 0,-1.806 c -0.476002,0.896004 -1.133996,1.602997 -1.974,2.121 -0.840004,0.518003 -1.749995,0.777 -2.73,0.777 l 0,0 z M 35.233,35 l -0.714,0 0,-6.09 c 0,-1.498008 -0.209998,-2.593497 -0.63,-3.2865 -0.420002,-0.693004 -1.091995,-1.0395 -2.016,-1.0395 -0.504003,0 -0.997498,0.091 -1.4805,0.273 -0.483002,0.182001 -0.930998,0.433998 -1.344,0.756 -0.413002,0.322002 -0.776998,0.699998 -1.092,1.134 -0.315002,0.434002 -0.542499,0.909997 -0.6825,1.428 l 0,6.825 -0.714,0 0,-10.92 0.672,0 0,2.73 c 0.224001,-0.434002 0.507498,-0.829498 0.8505,-1.1865 0.343002,-0.357002 0.724498,-0.661499 1.1445,-0.9135 0.420002,-0.252001 0.864498,-0.447999 1.3335,-0.588 0.469002,-0.140001 0.948498,-0.21 1.4385,-0.21 1.148006,0 1.973997,0.409496 2.478,1.2285 0.504003,0.819004 0.756,2.047492 0.756,3.6855 l 0,6.174 z m 2.685,4.011 c 0.252001,0 0.472499,-0.014 0.6615,-0.042 0.189001,-0.028 0.3185,-0.07 0.3885,-0.126 0.042,-0.028 0.0945,-0.098 0.1575,-0.21 0.063,-0.112001 0.160999,-0.304499 0.294,-0.5775 0.133001,-0.273001 0.304499,-0.654498 0.5145,-1.1445 0.210001,-0.490003 0.482998,-1.126996 0.819,-1.911 l -4.977,-10.92 0.777,0 4.578,10.164 4.326,-10.164 0.714,0 -6.258,14.616 c -0.168001,0.392002 -0.381499,0.650999 -0.6405,0.777 -0.259001,0.126001 -0.570498,0.189 -0.9345,0.189 l -0.42,0 0,-0.651 z M 49.864,35.21 c -0.504003,0 -0.972998,-0.0875 -1.407,-0.2625 -0.434002,-0.175001 -0.811999,-0.412999 -1.134,-0.714 -0.322002,-0.301002 -0.573999,-0.654498 -0.756,-1.0605 -0.182001,-0.406002 -0.273,-0.846998 -0.273,-1.323 0,-0.462002 0.111999,-0.885498 0.336,-1.2705 0.224001,-0.385002 0.535498,-0.717499 0.9345,-0.9975 0.399002,-0.280001 0.874997,-0.496999 1.428,-0.651 0.553003,-0.154001 1.165497,-0.231 1.8375,-0.231 0.602003,0 1.217997,0.049 1.848,0.147 0.630003,0.098 1.189998,0.244999 1.68,0.441 l 0,-1.176 c 0,-1.092006 -0.311497,-1.963497 -0.9345,-2.6145 -0.623003,-0.651003 -1.459495,-0.9765 -2.5095,-0.9765 -0.532003,0 -1.095497,0.115499 -1.6905,0.3465 -0.595003,0.231001 -1.200497,0.563498 -1.8165,0.9975 L 47.071,25.34 c 1.414007,-0.952005 2.708994,-1.428 3.885,-1.428 1.274006,0 2.278496,0.377996 3.0135,1.134 0.735004,0.756004 1.1025,1.791993 1.1025,3.108 l 0,5.712 c 0,0.308002 0.125999,0.462 0.378,0.462 l 0,0.672 c -0.042,0.014 -0.098,0.021 -0.168,0.021 -0.238001,0 -0.444499,-0.0875 -0.6195,-0.2625 C 54.487499,34.583499 54.4,34.370001 54.4,34.118 l 0,-0.966 c -0.490002,0.658003 -1.137496,1.165498 -1.9425,1.5225 -0.805004,0.357002 -1.669496,0.5355 -2.5935,0.5355 l 0,0 z m 0.105,-0.609 c 0.882004,0 1.686996,-0.164498 2.415,-0.4935 0.728003,-0.329002 1.273998,-0.773497 1.638,-1.3335 0.224001,-0.294002 0.336,-0.573999 0.336,-0.84 l 0,-2.058 c -1.078006,-0.420002 -2.239994,-0.63 -3.486,-0.63 -1.162006,0 -2.096497,0.234498 -2.8035,0.7035 -0.707004,0.469002 -1.0605,1.095496 -1.0605,1.8795 0,0.392002 0.077,0.755998 0.231,1.092 0.154001,0.336002 0.360499,0.629999 0.6195,0.882 0.259001,0.252001 0.570498,0.447999 0.9345,0.588 0.364002,0.140001 0.755998,0.21 1.176,0.21 l 0,0 z"
         id="dunya-copy"
         inkscape:connector-curvature="0"
         style="fill:#ffffff" />
    </g>
  </g>
  <text
     xml:space="preserve"
     style="font-style:normal;font-weight:normal;font-size:23.96952438px;line-height:125%;font-family:sans-serif;letter-spacing:0px;word-spacing:0px;fill:#000000;fill-opacity:1;stroke:none;stroke-width:1px;stroke-linecap:butt;stroke-linejoin:miter;stroke-opacity:1"
     x="4.587029"
     y="54.569447"
     id="text4148-3-7"
     sodipodi:linespacing="125%"><tspan
       sodipodi:role="line"
       id="tspan4150-6-5"
       x="4.587029"
       y="54.569447"
       style="font-style:normal;font-variant:normal;font-weight:normal;font-stretch:normal;font-size:6.74142838px;font-family:Comfortaa;-inkscape-font-specification:Comfortaa" /></text>
  <text
     xml:space="preserve"
     style="font-style:normal;font-weight:normal;font-size:184.96401978px;line-height:125%;font-family:sans-serif;letter-spacing:0px;word-spacing:0px;fill:#333333;fill-opacity:1;stroke:none;stroke-width:1px;stroke-linecap:butt;stroke-linejoin:miter;stroke-opacity:1"
     x="6.9856353"
     y="324.61328"
     id="text4148-3-3"
     sodipodi:linespacing="125%"><tspan
       sodipodi:role="line"
       id="tspan4150-6-56"
       x="6.9856353"
       y="324.61328"
       style="font-style:normal;font-variant:normal;font-weight:normal;font-stretch:normal;font-size:75.14163971px;font-family:Sawasdee;-inkscape-font-specification:Sawasdee;fill:#333333;fill-opacity:1">desktop</tspan></text>
</svg>
