<?xml version="1.0" encoding="UTF-8" standalone="no"?>
<svg
   xmlns:dc="http://purl.org/dc/elements/1.1/"
   xmlns:cc="http://creativecommons.org/ns#"
   xmlns:rdf="http://www.w3.org/1999/02/22-rdf-syntax-ns#"
   xmlns:svg="http://www.w3.org/2000/svg"
   xmlns="http://www.w3.org/2000/svg"
   xml:space="preserve"
   style="enable-background:new 0 0 420 420;"
   viewBox="0 0 420 420"
   y="0px"
   x="0px"
   id="Capa_1"
   version="1.1"><metadata
     id="metadata43"><rdf:RDF><cc:Work
         rdf:about=""><dc:format>image/svg+xml</dc:format><dc:type
           rdf:resource="http://purl.org/dc/dcmitype/StillImage" /><dc:title></dc:title></cc:Work></rdf:RDF></metadata><defs
     id="defs41" /><g
     id="g6"><path
       style="fill:#f2f2f2;fill-opacity:1"
       id="path2"
       d="M210,21c104.216,0,189,84.784,189,189s-84.784,189-189,189S21,314.216,21,210S105.784,21,210,21 M210,0   C94.031,0,0,94.024,0,210s94.031,210,210,210s210-94.024,210-210S325.969,0,210,0L210,0z" /><path
       style="fill:#f2f2f2;fill-opacity:1"
       id="path4"
       d="M129.5,143.941v132.125c0,19.25,15.75,35,35,35s35-15.75,35-35v-27.615l55.853,36.554   C274.687,297.647,290.5,289.1,290.5,266V147.875c0-23.1-15.792-31.612-35.084-18.914L199.5,165.76v-21.819c0-19.25-15.75-35-35-35   S129.5,124.691,129.5,143.941z M150.5,143.941c0-7.7,6.3-14,14-14s14,6.3,14,14v21.637c0,7.7,0,19.656,0,26.572   c0,6.909,5.264,9.1,11.697,4.865l67.606-44.478c6.433-4.228,11.697-1.393,11.697,6.3v96.327c0,7.7-5.271,10.549-11.718,6.335   l-67.564-44.226c-6.447-4.214-11.718-2.016-11.718,4.886c0,6.895,0,18.844,0,26.544v27.363c0,7.7-6.3,14-14,14s-14-6.3-14-14   V230.37c0-7.7,0-18.137,0-23.191s0-15.491,0-23.191V143.941z" /></g><g
     id="g8" /><g
     id="g10" /><g
     id="g12" /><g
     id="g14" /><g
     id="g16" /><g
     id="g18" /><g
     id="g20" /><g
     id="g22" /><g
     id="g24" /><g
     id="g26" /><g
     id="g28" /><g
     id="g30" /><g
     id="g32" /><g
     id="g34" /><g
     id="g36" /></svg>