<?xml version="1.0" encoding="UTF-8" standalone="no"?>
<svg
   xmlns:dc="http://purl.org/dc/elements/1.1/"
   xmlns:cc="http://creativecommons.org/ns#"
   xmlns:rdf="http://www.w3.org/1999/02/22-rdf-syntax-ns#"
   xmlns:svg="http://www.w3.org/2000/svg"
   xmlns="http://www.w3.org/2000/svg"
   version="1.1"
   id="Capa_1"
   x="0px"
   y="0px"
   viewBox="0 0 420 420"
   style="enable-background:new 0 0 420 420;"
   xml:space="preserve"><metadata
     id="metadata43"><rdf:RDF><cc:Work
         rdf:about=""><dc:format>image/svg+xml</dc:format><dc:type
           rdf:resource="http://purl.org/dc/dcmitype/StillImage" /><dc:title></dc:title></cc:Work></rdf:RDF></metadata><defs
     id="defs41" /><g
     id="g6"
     style="fill:#f2f2f2;fill-opacity:1;stroke:#f2f2f2;stroke-opacity:1"><path
       d="M210,21c104.216,0,189,84.784,189,189s-84.784,189-189,189S21,314.216,21,210S105.784,21,210,21 M210,0   C94.031,0,0,94.024,0,210s94.031,210,210,210s210-94.024,210-210S325.969,0,210,0L210,0z"
       id="path2"
       style="fill:#f2f2f2;fill-opacity:1;stroke:#f2f2f2;stroke-opacity:1" /><path
       d="M321.916,187.187l-83.832-55.167C218.792,119.329,203,127.841,203,150.941v17.885l-55.916-36.799   C127.792,119.329,112,127.841,112,150.941v118.125c0,23.1,15.813,31.647,35.147,18.998L203,251.51v17.556   c0,23.1,15.813,31.647,35.147,18.998l83.713-54.782C341.187,220.626,341.208,199.885,321.916,187.187z M307.006,217.896   l-71.295,46.655c-6.44,4.221-11.711,1.365-11.711-6.328v-31.556c0-7.7-5.271-10.549-11.718-6.335l-67.564,44.226   c-6.447,4.214-11.718,1.358-11.718-6.335v-96.327c0-7.7,5.264-10.535,11.697-6.3l67.606,44.478   c6.433,4.228,11.697,1.393,11.697-6.3v-31.878c0-7.7,5.264-10.535,11.697-6.3l71.33,46.935   C313.46,206.759,313.453,213.675,307.006,217.896z"
       id="path4"
       style="fill:#f2f2f2;fill-opacity:1;stroke:#f2f2f2;stroke-opacity:1" /></g><g
     style="stroke:#000000;stroke-opacity:1"
     id="g8" /><g
     style="stroke:#000000;stroke-opacity:1"
     id="g10" /><g
     style="stroke:#000000;stroke-opacity:1"
     id="g12" /><g
     style="stroke:#000000;stroke-opacity:1"
     id="g14" /><g
     style="stroke:#000000;stroke-opacity:1"
     id="g16" /><g
     style="stroke:#000000;stroke-opacity:1"
     id="g18" /><g
     style="stroke:#000000;stroke-opacity:1"
     id="g20" /><g
     style="stroke:#000000;stroke-opacity:1"
     id="g22" /><g
     style="stroke:#000000;stroke-opacity:1"
     id="g24" /><g
     style="stroke:#000000;stroke-opacity:1"
     id="g26" /><g
     style="stroke:#000000;stroke-opacity:1"
     id="g28" /><g
     style="stroke:#000000;stroke-opacity:1"
     id="g30" /><g
     style="stroke:#000000;stroke-opacity:1"
     id="g32" /><g
     style="stroke:#000000;stroke-opacity:1"
     id="g34" /><g
     style="stroke:#000000;stroke-opacity:1"
     id="g36" /></svg>