<?xml version="1.0" encoding="UTF-8" standalone="no"?>
<svg
   xmlns:dc="http://purl.org/dc/elements/1.1/"
   xmlns:cc="http://creativecommons.org/ns#"
   xmlns:rdf="http://www.w3.org/1999/02/22-rdf-syntax-ns#"
   xmlns:svg="http://www.w3.org/2000/svg"
   xmlns="http://www.w3.org/2000/svg"
   xml:space="preserve"
   style="enable-background:new 0 0 420 420;"
   viewBox="0 0 420 420"
   y="0px"
   x="0px"
   id="Capa_1"
   version="1.1"><metadata
     id="metadata43"><rdf:RDF><cc:Work
         rdf:about=""><dc:format>image/svg+xml</dc:format><dc:type
           rdf:resource="http://purl.org/dc/dcmitype/StillImage" /><dc:title></dc:title></cc:Work></rdf:RDF></metadata><defs
     id="defs41" /><g
     style="fill:#f2f2f2;fill-opacity:1"
     id="g6"><path
       style="fill:#f2f2f2;fill-opacity:1"
       id="path2"
       d="M210,21c104.216,0,189,84.784,189,189s-84.784,189-189,189S21,314.216,21,210S105.784,21,210,21 M210,0   C94.031,0,0,94.024,0,210s94.031,210,210,210s210-94.024,210-210S325.969,0,210,0L210,0z" /><path
       style="fill:#f2f2f2;fill-opacity:1"
       id="path4"
       d="M276.43,120.575c-4.802,0-10.164,1.456-15.82,4.536l-19.908,10.864l15.666-58.485c1.505-5.6-1.827-11.361-7.427-12.859   c-5.607-1.512-11.361,1.834-12.859,7.427l-20.853,77.812l-26.817,14.63H133c-19.25,0-35,15.75-35,35v21c0,19.25,15.75,35,35,35   h53.942l-23.317,87.017c-1.505,5.6,1.827,11.354,7.427,12.852c3.759,1.015,7.588-0.154,10.143-2.723   c1.267-1.26,2.219-2.856,2.716-4.704l22.183-82.796l54.523,29.743c5.656,3.08,11.018,4.536,15.82,4.536   c12.418,0,21.056-9.772,21.056-26.425V147C297.486,130.34,288.855,120.575,276.43,120.575z M191.093,234.5   c-1.477,0-8.981,0-16.681,0H133c-7.7,0-14-6.3-14-14v-21c0-7.7,6.3-14,14-14h41.412c7.7,0,15.204,0,16.681,0   c1.47,0,3.731-0.574,5.026-1.288c1.099-0.595,6.02-3.283,11.62-6.335l-15.225,56.826C192.024,234.633,191.492,234.5,191.093,234.5z    M276.486,265.622c0,7.7-5.53,10.983-12.292,7.294l-52.514-28.644l21.511-80.283l31.003-16.912   c6.762-3.689,12.292-0.406,12.292,7.294C276.486,154.371,276.486,265.622,276.486,265.622z" /></g><g
     style="fill:#f2f2f2;fill-opacity:1"
     id="g8" /><g
     style="fill:#f2f2f2;fill-opacity:1"
     id="g10" /><g
     style="fill:#f2f2f2;fill-opacity:1"
     id="g12" /><g
     style="fill:#f2f2f2;fill-opacity:1"
     id="g14" /><g
     style="fill:#f2f2f2;fill-opacity:1"
     id="g16" /><g
     style="fill:#f2f2f2;fill-opacity:1"
     id="g18" /><g
     style="fill:#f2f2f2;fill-opacity:1"
     id="g20" /><g
     style="fill:#f2f2f2;fill-opacity:1"
     id="g22" /><g
     style="fill:#f2f2f2;fill-opacity:1"
     id="g24" /><g
     style="fill:#f2f2f2;fill-opacity:1"
     id="g26" /><g
     style="fill:#f2f2f2;fill-opacity:1"
     id="g28" /><g
     style="fill:#f2f2f2;fill-opacity:1"
     id="g30" /><g
     style="fill:#f2f2f2;fill-opacity:1"
     id="g32" /><g
     style="fill:#f2f2f2;fill-opacity:1"
     id="g34" /><g
     style="fill:#f2f2f2;fill-opacity:1"
     id="g36" /></svg>