<?xml version="1.0" encoding="UTF-8" standalone="no"?>
<svg
   xmlns:dc="http://purl.org/dc/elements/1.1/"
   xmlns:cc="http://creativecommons.org/ns#"
   xmlns:rdf="http://www.w3.org/1999/02/22-rdf-syntax-ns#"
   xmlns:svg="http://www.w3.org/2000/svg"
   xmlns="http://www.w3.org/2000/svg"
   xml:space="preserve"
   style="enable-background:new 0 0 420 420;"
   viewBox="0 0 420 420"
   y="0px"
   x="0px"
   id="Capa_1"
   version="1.1"><metadata
     id="metadata43"><rdf:RDF><cc:Work
         rdf:about=""><dc:format>image/svg+xml</dc:format><dc:type
           rdf:resource="http://purl.org/dc/dcmitype/StillImage" /><dc:title></dc:title></cc:Work></rdf:RDF></metadata><defs
     id="defs41" /><g
     style="fill:#f2f2f2;fill-opacity:1"
     id="g6"><path
       style="fill:#f2f2f2;fill-opacity:1"
       id="path2"
       d="M210,21c104.216,0,189,84.784,189,189s-84.784,189-189,189S21,314.216,21,210S105.784,21,210,21 M210,0   C94.031,0,0,94.024,0,210s94.031,210,210,210s210-94.024,210-210S325.969,0,210,0L210,0z" /><path
       style="fill:#f2f2f2;fill-opacity:1"
       id="path4"
       d="M255.5,108.941c-19.25,0-35,15.75-35,35v21.819l-55.916-36.799c-19.292-12.691-35.084-4.186-35.084,18.914V266   c0,23.1,15.813,31.647,35.147,18.998l55.853-36.554v27.615c0,19.25,15.75,35,35,35s35-15.75,35-35V143.941   C290.5,124.691,274.75,108.941,255.5,108.941z M269.5,183.995c0,7.7,0,18.137,0,23.191c0,5.054,0,15.491,0,23.191v45.689   c0,7.7-6.3,14-14,14s-14-6.3-14-14v-27.363c0-7.7,0-19.649,0-26.544c0-6.902-5.271-9.1-11.718-4.886l-67.564,44.226   c-6.447,4.214-11.718,1.358-11.718-6.335V158.83c0-7.7,5.264-10.535,11.697-6.3l67.606,44.478   c6.433,4.228,11.697,2.044,11.697-4.865c0-6.916,0-18.872,0-26.572v-21.637c0-7.7,6.3-14,14-14s14,6.3,14,14V183.995z" /></g><g
     style="fill:#f2f2f2;fill-opacity:1"
     id="g8" /><g
     style="fill:#f2f2f2;fill-opacity:1"
     id="g10" /><g
     style="fill:#f2f2f2;fill-opacity:1"
     id="g12" /><g
     style="fill:#f2f2f2;fill-opacity:1"
     id="g14" /><g
     style="fill:#f2f2f2;fill-opacity:1"
     id="g16" /><g
     style="fill:#f2f2f2;fill-opacity:1"
     id="g18" /><g
     style="fill:#f2f2f2;fill-opacity:1"
     id="g20" /><g
     style="fill:#f2f2f2;fill-opacity:1"
     id="g22" /><g
     style="fill:#f2f2f2;fill-opacity:1"
     id="g24" /><g
     style="fill:#f2f2f2;fill-opacity:1"
     id="g26" /><g
     style="fill:#f2f2f2;fill-opacity:1"
     id="g28" /><g
     style="fill:#f2f2f2;fill-opacity:1"
     id="g30" /><g
     style="fill:#f2f2f2;fill-opacity:1"
     id="g32" /><g
     style="fill:#f2f2f2;fill-opacity:1"
     id="g34" /><g
     style="fill:#f2f2f2;fill-opacity:1"
     id="g36" /></svg>