<?xml version="1.0" encoding="UTF-8" standalone="no"?>
<svg
   xmlns:dc="http://purl.org/dc/elements/1.1/"
   xmlns:cc="http://creativecommons.org/ns#"
   xmlns:rdf="http://www.w3.org/1999/02/22-rdf-syntax-ns#"
   xmlns:svg="http://www.w3.org/2000/svg"
   xmlns="http://www.w3.org/2000/svg"
   xml:space="preserve"
   style="enable-background:new 0 0 420 420;"
   viewBox="0 0 420 420"
   y="0px"
   x="0px"
   id="Capa_1"
   version="1.1"><metadata
     id="metadata47"><rdf:RDF><cc:Work
         rdf:about=""><dc:format>image/svg+xml</dc:format><dc:type
           rdf:resource="http://purl.org/dc/dcmitype/StillImage" /><dc:title></dc:title></cc:Work></rdf:RDF></metadata><defs
     id="defs45" /><g
     style="fill:#f2f2f2;fill-opacity:1"
     id="g10"><path
       style="fill:#f2f2f2;fill-opacity:1"
       id="path2"
       d="M210,21c104.216,0,189,84.784,189,189s-84.784,189-189,189S21,314.216,21,210S105.784,21,210,21 M210,0   C94.031,0,0,94.024,0,210s94.031,210,210,210s210-94.024,210-210S325.969,0,210,0L210,0z" /><g
       style="fill:#f2f2f2;fill-opacity:1"
       id="g8"><path
         style="fill:#f2f2f2;fill-opacity:1"
         id="path4"
         d="M259,108.941c-19.25,0-35,15.75-35,35v132.125c0,19.25,15.75,35,35,35s35-15.75,35-35V143.941    C294,124.691,278.25,108.941,259,108.941z M273,276.066c0,7.7-6.3,14-14,14s-14-6.3-14-14V143.941c0-7.7,6.3-14,14-14    s14,6.3,14,14V276.066z" /><path
         style="fill:#f2f2f2;fill-opacity:1"
         id="path6"
         d="M161,108.941c-19.25,0-35,15.75-35,35v132.125c0,19.25,15.75,35,35,35s35-15.75,35-35V143.941    C196,124.691,180.25,108.941,161,108.941z M175,276.066c0,7.7-6.3,14-14,14s-14-6.3-14-14V143.941c0-7.7,6.3-14,14-14    s14,6.3,14,14V276.066z" /></g></g><g
     style="fill:#f2f2f2;fill-opacity:1"
     id="g12" /><g
     style="fill:#f2f2f2;fill-opacity:1"
     id="g14" /><g
     style="fill:#f2f2f2;fill-opacity:1"
     id="g16" /><g
     style="fill:#f2f2f2;fill-opacity:1"
     id="g18" /><g
     style="fill:#f2f2f2;fill-opacity:1"
     id="g20" /><g
     style="fill:#f2f2f2;fill-opacity:1"
     id="g22" /><g
     style="fill:#f2f2f2;fill-opacity:1"
     id="g24" /><g
     style="fill:#f2f2f2;fill-opacity:1"
     id="g26" /><g
     style="fill:#f2f2f2;fill-opacity:1"
     id="g28" /><g
     style="fill:#f2f2f2;fill-opacity:1"
     id="g30" /><g
     style="fill:#f2f2f2;fill-opacity:1"
     id="g32" /><g
     style="fill:#f2f2f2;fill-opacity:1"
     id="g34" /><g
     style="fill:#f2f2f2;fill-opacity:1"
     id="g36" /><g
     style="fill:#f2f2f2;fill-opacity:1"
     id="g38" /><g
     style="fill:#f2f2f2;fill-opacity:1"
     id="g40" /></svg>