<?xml version="1.0" encoding="UTF-8" standalone="no"?>
<svg
   xmlns:dc="http://purl.org/dc/elements/1.1/"
   xmlns:cc="http://creativecommons.org/ns#"
   xmlns:rdf="http://www.w3.org/1999/02/22-rdf-syntax-ns#"
   xmlns:svg="http://www.w3.org/2000/svg"
   xmlns="http://www.w3.org/2000/svg"
   xml:space="preserve"
   style="enable-background:new 0 0 420 420;"
   viewBox="0 0 420 420"
   y="0px"
   x="0px"
   id="Capa_1"
   version="1.1"><metadata
     id="metadata45"><rdf:RDF><cc:Work
         rdf:about=""><dc:format>image/svg+xml</dc:format><dc:type
           rdf:resource="http://purl.org/dc/dcmitype/StillImage" /><dc:title></dc:title></cc:Work></rdf:RDF></metadata><defs
     id="defs43" /><g
     style="fill:#f2f2f2;fill-opacity:1"
     id="g8"><path
       style="fill:#f2f2f2;fill-opacity:1"
       id="path2"
       d="M210,21c104.216,0,189,84.784,189,189s-84.784,189-189,189S21,314.216,21,210S105.784,21,210,21 M210,0   C94.031,0,0,94.024,0,210s94.031,210,210,210s210-94.024,210-210S325.969,0,210,0L210,0z" /><path
       style="fill:#f2f2f2;fill-opacity:1"
       id="path4"
       d="M333.2,132.286l-30.31-28c-4.249-3.941-10.899-3.675-14.833,0.588c-3.941,4.249-3.661,10.899,0.588,14.833l10.717,9.905   c-53.431,1.12-97.153,12.145-107.352,89.509c-8.099,61.46-35.546,71.379-98.091,71.379c-5.803,0-10.5,4.704-10.5,10.5   s4.697,10.5,10.5,10.5c58.604,0,107.996-6.748,118.909-89.628c7.56-57.421,32.046-69.846,86.24-71.225l-10.43,9.639   c-4.249,3.934-4.522,10.584-0.588,14.833c3.941,4.263,10.584,4.522,14.833,0.588l30.31-28c2.163-1.981,3.374-4.788,3.374-7.714   S335.356,134.274,333.2,132.286z" /><path
       style="fill:#f2f2f2;fill-opacity:1"
       id="path6"
       d="M83.419,126c0-5.796,4.697-10.5,10.5-10.5c41.79,0,78.897,3.458,100.702,35.49c-4.494,6.167-8.491,13.237-11.935,21.287   c-13.86-29.939-41.104-35.777-88.767-35.777C88.123,136.5,83.419,131.796,83.419,126z M302.89,251.286   c-4.249-3.941-10.899-3.675-14.833,0.588c-3.941,4.249-3.661,10.906,0.588,14.833l10.43,9.639   c-34.629-0.882-57.085-6.335-70.784-25.095c-2.303,8.211-5.089,15.589-8.26,22.225c19.866,19.033,47.887,23.24,79.331,23.905   l-10.717,9.905c-4.249,3.941-4.522,10.584-0.588,14.833c3.941,4.263,10.584,4.522,14.833,0.588l30.31-28   c2.163-1.981,3.374-4.788,3.374-7.714s-1.218-5.726-3.374-7.714L302.89,251.286z" /></g><g
     style="fill:#f2f2f2;fill-opacity:1"
     id="g10" /><g
     style="fill:#f2f2f2;fill-opacity:1"
     id="g12" /><g
     style="fill:#f2f2f2;fill-opacity:1"
     id="g14" /><g
     style="fill:#f2f2f2;fill-opacity:1"
     id="g16" /><g
     style="fill:#f2f2f2;fill-opacity:1"
     id="g18" /><g
     style="fill:#f2f2f2;fill-opacity:1"
     id="g20" /><g
     style="fill:#f2f2f2;fill-opacity:1"
     id="g22" /><g
     style="fill:#f2f2f2;fill-opacity:1"
     id="g24" /><g
     style="fill:#f2f2f2;fill-opacity:1"
     id="g26" /><g
     style="fill:#f2f2f2;fill-opacity:1"
     id="g28" /><g
     style="fill:#f2f2f2;fill-opacity:1"
     id="g30" /><g
     style="fill:#f2f2f2;fill-opacity:1"
     id="g32" /><g
     style="fill:#f2f2f2;fill-opacity:1"
     id="g34" /><g
     style="fill:#f2f2f2;fill-opacity:1"
     id="g36" /><g
     style="fill:#f2f2f2;fill-opacity:1"
     id="g38" /></svg>