<?xml version="1.0" encoding="UTF-8" standalone="no"?>
<svg
   xmlns:dc="http://purl.org/dc/elements/1.1/"
   xmlns:cc="http://creativecommons.org/ns#"
   xmlns:rdf="http://www.w3.org/1999/02/22-rdf-syntax-ns#"
   xmlns:svg="http://www.w3.org/2000/svg"
   xmlns="http://www.w3.org/2000/svg"
   xml:space="preserve"
   style="enable-background:new 0 0 420 420;"
   viewBox="0 0 420 420"
   y="0px"
   x="0px"
   id="Capa_1"
   version="1.1"><metadata
     id="metadata43"><rdf:RDF><cc:Work
         rdf:about=""><dc:format>image/svg+xml</dc:format><dc:type
           rdf:resource="http://purl.org/dc/dcmitype/StillImage" /><dc:title></dc:title></cc:Work></rdf:RDF></metadata><defs
     id="defs41" /><g
     style="fill:#f2f2f2;fill-opacity:1"
     id="g6"><path
       style="fill:#f2f2f2;fill-opacity:1"
       id="path2"
       d="M210,21c104.216,0,189,84.784,189,189s-84.784,189-189,189S21,314.216,21,210S105.784,21,210,21 M210,0   C94.031,0,0,94.024,0,210s94.031,210,210,210s210-94.024,210-210S325.969,0,210,0L210,0z" /><path
       style="fill:#f2f2f2;fill-opacity:1"
       id="path4"
       d="M276.43,120.575c-4.802,0-10.164,1.456-15.82,4.536L188.412,164.5H133c-19.25,0-35,15.75-35,35v21c0,19.25,15.75,35,35,35   h55.412l72.198,39.389c5.656,3.08,11.018,4.536,15.82,4.536c12.418,0,21.056-9.772,21.056-26.425V147   C297.486,130.34,288.855,120.575,276.43,120.575z M276.486,265.622c0,7.7-5.53,10.983-12.292,7.294l-53.438-29.148   c-6.762-3.689-13.349-7.28-14.644-7.987c-1.295-0.714-3.556-1.288-5.026-1.288c-1.477,0-8.981,0-16.681,0H133c-7.7,0-14-6.3-14-14   v-21c0-7.7,6.3-14,14-14h41.412c7.7,0,15.204,0,16.681,0c1.47,0,3.731-0.574,5.026-1.288c1.295-0.707,7.882-4.291,14.644-7.987   l53.438-29.148c6.762-3.689,12.292-0.406,12.292,7.294v111.258H276.486z" /></g><g
     style="fill:#f2f2f2;fill-opacity:1"
     id="g8" /><g
     style="fill:#f2f2f2;fill-opacity:1"
     id="g10" /><g
     style="fill:#f2f2f2;fill-opacity:1"
     id="g12" /><g
     style="fill:#f2f2f2;fill-opacity:1"
     id="g14" /><g
     style="fill:#f2f2f2;fill-opacity:1"
     id="g16" /><g
     style="fill:#f2f2f2;fill-opacity:1"
     id="g18" /><g
     style="fill:#f2f2f2;fill-opacity:1"
     id="g20" /><g
     style="fill:#f2f2f2;fill-opacity:1"
     id="g22" /><g
     style="fill:#f2f2f2;fill-opacity:1"
     id="g24" /><g
     style="fill:#f2f2f2;fill-opacity:1"
     id="g26" /><g
     style="fill:#f2f2f2;fill-opacity:1"
     id="g28" /><g
     style="fill:#f2f2f2;fill-opacity:1"
     id="g30" /><g
     style="fill:#f2f2f2;fill-opacity:1"
     id="g32" /><g
     style="fill:#f2f2f2;fill-opacity:1"
     id="g34" /><g
     style="fill:#f2f2f2;fill-opacity:1"
     id="g36" /></svg>